<svg width="192" height="163" viewBox="0 0 192 163" fill="none" xmlns="http://www.w3.org/2000/svg">
<path d="M108.396 31.0268C110.726 28.4944 114.723 28.4944 117.053 31.0268L122.205 36.6251C125.674 40.3953 122.999 46.4903 117.876 46.4903H107.573C102.45 46.4903 99.7755 40.3953 103.245 36.6251L108.396 31.0268Z" fill="white" fill-opacity="0.75"/>
<path d="M108.396 60.1541C110.726 57.6218 114.723 57.6218 117.053 60.1541L122.205 65.7524C125.674 69.5227 122.999 75.6177 117.876 75.6177H107.573C102.45 75.6177 99.7755 69.5227 103.245 65.7524L108.396 60.1541Z" fill="white" fill-opacity="0.75"/>
<path d="M108.396 89.2932C110.726 86.7608 114.723 86.7608 117.053 89.2932L122.205 94.8915C125.674 98.6618 122.999 104.757 117.876 104.757H107.573C102.45 104.757 99.7755 98.6618 103.245 94.8915L108.396 89.2932Z" fill="white" fill-opacity="0.75"/>
<path d="M74.783 59.8818C77.1132 57.3494 81.11 57.3494 83.4402 59.8818L88.5915 65.4801C92.0607 69.2503 89.3864 75.3454 84.2629 75.3454H73.9603C68.8368 75.3454 66.1625 69.2503 69.6317 65.4801L74.783 59.8818Z" fill="white" fill-opacity="0.5"/>
<path d="M108.396 118.409C110.726 115.877 114.723 115.877 117.053 118.409L122.205 124.007C125.674 127.778 122.999 133.873 117.876 133.873H107.573C102.45 133.873 99.7755 127.778 103.245 124.007L108.396 118.409Z" fill="white" fill-opacity="0.5"/>
<path d="M6.71655 118.409C9.04673 115.877 13.0436 115.877 15.3738 118.409L20.5251 124.007C23.9943 127.778 21.32 133.873 16.1965 133.873H5.89391C0.770416 133.873 -1.90394 127.778 1.56527 124.007L6.71655 118.409Z" fill="white" fill-opacity="0.5"/>
<path d="M108.396 147.536C110.726 145.004 114.723 145.004 117.053 147.536L122.205 153.135C125.674 156.905 122.999 163 117.876 163H107.573C102.45 163 99.7755 156.905 103.245 153.135L108.396 147.536Z" fill="white" fill-opacity="0.5"/>
<path d="M142.251 1.89929C144.581 -0.633095 148.578 -0.633098 150.908 1.89929L156.06 7.49758C159.529 11.2678 156.855 17.3629 151.731 17.3629H141.429C136.305 17.3629 133.631 11.2678 137.1 7.49759L142.251 1.89929Z" fill="white" fill-opacity="0.5"/>
<path d="M142.251 31.0268C144.581 28.4944 148.578 28.4944 150.908 31.0268L156.06 36.6251C159.529 40.3953 156.855 46.4903 151.731 46.4903H141.429C136.305 46.4903 133.631 40.3953 137.1 36.6251L142.251 31.0268Z" fill="white" fill-opacity="0.5"/>
<path d="M142.251 60.1541C144.581 57.6218 148.578 57.6218 150.908 60.1541L156.06 65.7524C159.529 69.5227 156.855 75.6177 151.731 75.6177H141.429C136.305 75.6177 133.631 69.5227 137.1 65.7524L142.251 60.1541Z" fill="white" fill-opacity="0.5"/>
<path d="M142.009 89.2932C144.339 86.7608 148.336 86.7608 150.666 89.2932L155.818 94.8915C159.287 98.6618 156.612 104.757 151.489 104.757H141.186C136.063 104.757 133.389 98.6618 136.858 94.8915L142.009 89.2932Z" fill="white" fill-opacity="0.5"/>
<path d="M40.5717 89.2815C42.9019 86.7491 46.8988 86.7491 49.2289 89.2815L54.3802 94.8798C57.8494 98.6501 55.1751 104.745 50.0516 104.745H39.749C34.6255 104.745 31.9512 98.6501 35.4204 94.8798L40.5717 89.2815Z" fill="white" fill-opacity="0.5"/>
<path d="M142.009 118.705C144.339 116.172 148.336 116.172 150.666 118.705L155.818 124.303C159.287 128.073 156.612 134.168 151.489 134.168H141.186C136.063 134.168 133.389 128.073 136.858 124.303L142.009 118.705Z" fill="white" fill-opacity="0.5"/>
<path d="M40.5717 118.409C42.9019 115.877 46.8988 115.877 49.2289 118.409L54.3802 124.007C57.8494 127.778 55.1751 133.873 50.0516 133.873H39.749C34.6255 133.873 31.9512 127.778 35.4204 124.007L40.5717 118.409Z" fill="white" fill-opacity="0.5"/>
<path d="M142.251 147.536C144.581 145.004 148.578 145.004 150.908 147.536L156.06 153.135C159.529 156.905 156.855 163 151.731 163H141.429C136.305 163 133.631 156.905 137.1 153.135L142.251 147.536Z" fill="white" fill-opacity="0.5"/>
<path d="M40.5717 147.536C42.9019 145.004 46.8988 145.004 49.2289 147.536L54.3802 153.135C57.8494 156.905 55.1751 163 50.0516 163H39.749C34.6255 163 31.9512 156.905 35.4204 153.135L40.5717 147.536Z" fill="white" fill-opacity="0.5"/>
<path d="M176.106 31.0268C178.436 28.4944 182.433 28.4944 184.763 31.0268L189.914 36.6251C193.384 40.3953 190.709 46.4903 185.586 46.4903H175.283C170.16 46.4903 167.485 40.3953 170.955 36.6251L176.106 31.0268Z" fill="white" fill-opacity="0.5"/>
<path d="M176.106 60.1541C178.436 57.6218 182.433 57.6218 184.763 60.1541L189.914 65.7524C193.384 69.5227 190.709 75.6177 185.586 75.6177H175.283C170.16 75.6177 167.485 69.5227 170.955 65.7524L176.106 60.1541Z" fill="white" fill-opacity="0.75"/>
<path d="M176.106 89.2815C178.436 86.7491 182.433 86.7491 184.763 89.2815L189.914 94.8798C193.384 98.6501 190.709 104.745 185.586 104.745H175.283C170.16 104.745 167.485 98.6501 170.955 94.8798L176.106 89.2815Z" fill="white" fill-opacity="0.5"/>
<path d="M74.4264 89.2815C76.7566 86.7491 80.7535 86.7491 83.0837 89.2815L88.2349 94.8798C91.7042 98.6501 89.0298 104.745 83.9063 104.745H73.6038C68.4803 104.745 65.8059 98.6501 69.2751 94.8798L74.4264 89.2815Z" fill="white" fill-opacity="0.75"/>
<path d="M176.106 118.409C178.436 115.877 182.433 115.877 184.763 118.409L189.914 124.007C193.384 127.778 190.709 133.873 185.586 133.873H175.283C170.16 133.873 167.485 127.778 170.955 124.007L176.106 118.409Z" fill="white" fill-opacity="0.5"/>
<path d="M74.4264 118.409C76.7566 115.877 80.7535 115.877 83.0837 118.409L88.2349 124.007C91.7042 127.778 89.0298 133.873 83.9063 133.873H73.6038C68.4803 133.873 65.8059 127.778 69.2751 124.007L74.4264 118.409Z" fill="white" fill-opacity="0.5"/>
<path d="M74.4264 147.536C76.7566 145.004 80.7535 145.004 83.0837 147.536L88.2349 153.135C91.7042 156.905 89.0298 163 83.9063 163H73.6038C68.4803 163 65.8059 156.905 69.2751 153.135L74.4264 147.536Z" fill="white" fill-opacity="0.5"/>
</svg>
