<svg width="204" height="204" viewBox="0 0 204 204" fill="none" xmlns="http://www.w3.org/2000/svg">
<path d="M88.6642 164.967C86.2103 168.099 82.0012 168.099 79.5473 164.967L74.1225 158.043C70.4692 153.38 73.2855 145.842 78.681 145.842H89.5305C94.926 145.842 97.7423 153.38 94.089 158.043L88.6642 164.967Z" fill="white" fill-opacity="0.75"/>
<path d="M88.6642 128.283C86.2103 131.415 82.0012 131.415 79.5473 128.283L74.1225 121.359C70.4692 116.696 73.2855 109.158 78.681 109.158H89.5305C94.926 109.158 97.7423 116.696 94.089 121.359L88.6642 128.283Z" fill="white" fill-opacity="0.75"/>
<path d="M88.6642 92.3953C86.2103 95.6577 82.0012 95.6577 79.5473 92.3953L74.1225 85.183C70.4692 80.3259 73.2855 72.4737 78.681 72.4737H89.5305C94.926 72.4737 97.7423 80.3258 94.089 85.183L88.6642 92.3953Z" fill="white" fill-opacity="0.75"/>
<path d="M124.454 129.177C122 132.309 117.791 132.309 115.337 129.177L109.912 122.254C106.259 117.591 109.075 110.053 114.47 110.053H125.32C130.715 110.053 133.532 117.591 129.878 122.254L124.454 129.177Z" fill="white" fill-opacity="0.5"/>
<path d="M88.6642 55.8089C86.2103 58.9409 82.0012 58.9409 79.5473 55.8089L74.1225 48.8852C70.4692 44.2223 73.2855 36.6842 78.681 36.6842H89.5305C94.926 36.6842 97.7423 44.2223 94.089 48.8852L88.6642 55.8089Z" fill="white" fill-opacity="0.5"/>
<path d="M196.927 55.8089C194.473 58.9409 190.264 58.9409 187.81 55.8089L182.386 48.8852C178.732 44.2223 181.549 36.6842 186.944 36.6842H197.794C203.189 36.6842 206.005 44.2223 202.352 48.8852L196.927 55.8089Z" fill="white" fill-opacity="0.5"/>
<path d="M88.6642 19.1247C86.2103 22.2567 82.0012 22.2567 79.5473 19.1247L74.1225 12.201C70.4692 7.53809 73.2855 0 78.681 0H89.5305C94.926 0 97.7423 7.53808 94.089 12.201L88.6642 19.1247Z" fill="white" fill-opacity="0.5"/>
<path d="M52.6027 201.651C50.0544 204.783 45.6834 204.783 43.1351 201.651L37.5017 194.727C33.7078 190.064 36.6325 182.526 42.2355 182.526H53.5023C59.1053 182.526 62.03 190.064 58.2361 194.727L52.6027 201.651Z" fill="white" fill-opacity="0.5"/>
<path d="M52.6027 164.967C50.0544 168.099 45.6834 168.099 43.1351 164.967L37.5017 158.043C33.7078 153.38 36.6325 145.842 42.2355 145.842H53.5023C59.1053 145.842 62.03 153.38 58.2361 158.043L52.6027 164.967Z" fill="white" fill-opacity="0.5"/>
<path d="M52.6027 128.283C50.0544 131.415 45.6834 131.415 43.1351 128.283L37.5017 121.359C33.7078 116.696 36.6325 109.158 42.2355 109.158H53.5023C59.1053 109.158 62.03 116.696 58.2361 121.359L52.6027 128.283Z" fill="white" fill-opacity="0.5"/>
<path d="M52.8747 92.3953C50.4208 95.6577 46.2117 95.6577 43.7578 92.3953L38.3331 85.183C34.6797 80.3259 37.496 72.4737 42.8915 72.4737H53.741C59.1365 72.4737 61.9529 80.3258 58.2995 85.183L52.8747 92.3953Z" fill="white" fill-opacity="0.5"/>
<path d="M160.866 92.3953C158.318 95.6577 153.947 95.6577 151.398 92.3953L145.765 85.183C141.971 80.3259 144.896 72.4737 150.499 72.4737H161.765C167.368 72.4737 170.293 80.3258 166.499 85.183L160.866 92.3953Z" fill="white" fill-opacity="0.5"/>
<path d="M52.8747 55.7111C50.4208 58.9735 46.2117 58.9735 43.7578 55.7111L38.3331 48.4988C34.6797 43.6416 37.496 35.7895 42.8915 35.7895H53.741C59.1365 35.7895 61.9529 43.6416 58.2995 48.4988L52.8747 55.7111Z" fill="white" fill-opacity="0.5"/>
<path d="M160.866 55.8089C158.318 58.9409 153.947 58.9409 151.398 55.8089L145.765 48.8852C141.971 44.2223 144.896 36.6842 150.499 36.6842H161.765C167.368 36.6842 170.293 44.2223 166.499 48.8852L160.866 55.8089Z" fill="white" fill-opacity="0.5"/>
<path d="M52.6027 19.1247C50.0544 22.2567 45.6834 22.2567 43.1351 19.1247L37.5017 12.201C33.7078 7.53809 36.6325 0 42.2355 0H53.5023C59.1053 0 62.03 7.53808 58.2361 12.201L52.6027 19.1247Z" fill="white" fill-opacity="0.5"/>
<path d="M160.866 19.1247C158.318 22.2567 153.947 22.2567 151.398 19.1247L145.765 12.201C141.971 7.53809 144.896 0 150.499 0H161.765C167.368 0 170.293 7.53808 166.499 12.201L160.866 19.1247Z" fill="white" fill-opacity="0.5"/>
<path d="M16.1905 164.967C13.7366 168.099 9.52752 168.099 7.07363 164.967L1.64886 158.043C-2.00453 153.38 0.811791 145.842 6.20729 145.842H17.0568C22.4523 145.842 25.2687 153.38 21.6153 158.043L16.1905 164.967Z" fill="white" fill-opacity="0.5"/>
<path d="M16.1905 128.283C13.7366 131.415 9.52752 131.415 7.07363 128.283L1.64886 121.359C-2.00453 116.696 0.811791 109.158 6.20729 109.158H17.0568C22.4523 109.158 25.2687 116.696 21.6153 121.359L16.1905 128.283Z" fill="white" fill-opacity="0.75"/>
<path d="M16.1905 92.3953C13.7366 95.6577 9.52752 95.6577 7.07363 92.3953L1.64886 85.183C-2.00453 80.3259 0.811791 72.4737 6.20729 72.4737H17.0568C22.4523 72.4737 25.2687 80.3258 21.6153 85.183L16.1905 92.3953Z" fill="white" fill-opacity="0.5"/>
<path d="M124.454 92.3953C122 95.6577 117.791 95.6577 115.337 92.3953L109.912 85.183C106.259 80.3259 109.075 72.4737 114.47 72.4737H125.32C130.715 72.4737 133.532 80.3258 129.878 85.183L124.454 92.3953Z" fill="white" fill-opacity="0.75"/>
<path d="M16.1905 55.8089C13.7366 58.9409 9.52752 58.9409 7.07363 55.8089L1.64886 48.8852C-2.00453 44.2223 0.811791 36.6842 6.20729 36.6842H17.0568C22.4523 36.6842 25.2687 44.2223 21.6153 48.8852L16.1905 55.8089Z" fill="white" fill-opacity="0.5"/>
<path d="M124.454 55.8089C122 58.9409 117.791 58.9409 115.337 55.8089L109.912 48.8852C106.259 44.2223 109.075 36.6842 114.47 36.6842H125.32C130.715 36.6842 133.532 44.2223 129.878 48.8852L124.454 55.8089Z" fill="white" fill-opacity="0.5"/>
<path d="M124.454 19.1247C122 22.2567 117.791 22.2567 115.337 19.1247L109.912 12.201C106.259 7.53809 109.075 0 114.47 0H125.32C130.715 0 133.532 7.53808 129.878 12.201L124.454 19.1247Z" fill="white" fill-opacity="0.5"/>
</svg>
